<svg width="200" height="83" viewBox="0 0 200 83" fill="none" xmlns="http://www.w3.org/2000/svg">
<rect x="2.84761" y="10.2685" width="191" height="70" rx="35" transform="rotate(-2.22666 2.84761 10.2685)" fill="#25A3E1"/>
<rect x="2.84761" y="10.2685" width="191" height="70" rx="35" transform="rotate(-2.22666 2.84761 10.2685)" stroke="#F3F5FA" stroke-width="8"/>
<path d="M29.8965 57.2531L22.6221 32.3169L26.759 32.156L32.3846 51.7522L33.1041 51.7243L37.5509 31.7364L42.2273 31.5546L48.2127 51.1368L48.9321 51.1088L53.0192 31.135L57.156 30.9741L51.8399 56.3999L46.0842 56.6237L40.4936 37.9268L39.7741 37.9547L35.6521 57.0293L29.8965 57.2531ZM62.4397 45.5398L73.0517 45.1272C72.803 43.6718 72.1937 42.5186 71.2239 41.6676C70.2541 40.8167 69.0617 40.4187 67.6468 40.4737C66.1599 40.5315 64.9781 41.0218 64.1013 41.9446C63.2235 42.8433 62.6697 44.0418 62.4397 45.5398ZM72.3552 50.3782L76.1323 50.2314C75.6607 51.6908 74.7518 53.0231 73.4056 54.2283C72.0824 55.4086 70.3656 56.0398 68.2552 56.1219C65.6412 56.2235 63.4493 55.4441 61.6794 53.7836C59.9336 52.1222 59.0065 49.9005 58.8984 47.1186C58.7902 44.3367 59.5419 42.0498 61.1535 40.2578C62.7891 38.4649 64.9139 37.5176 67.5279 37.416C69.9741 37.3209 72.0572 38.0805 73.7772 39.6949C75.4972 41.3093 76.4062 43.3756 76.5041 45.8937C76.5125 46.1095 76.4933 46.5426 76.4465 47.1929L76.3941 47.6993L62.5446 48.2378C62.7961 49.7652 63.4313 50.9654 64.4499 51.8385C65.4686 52.7116 66.6974 53.1201 68.1364 53.0642C69.1436 53.025 70.0216 52.7507 70.7704 52.2412C71.5422 51.7068 72.0705 51.0858 72.3552 50.3782ZM80.843 55.2722L79.8639 30.0912L83.4612 29.9513L83.8248 39.3043L84.0047 39.2973C84.3716 38.8507 84.6823 38.5023 84.9368 38.2523C85.1903 37.9782 85.7418 37.6445 86.5912 37.2512C87.4636 36.833 88.4274 36.6034 89.4826 36.5624C91.8808 36.4691 93.8924 37.2435 95.5174 38.8856C97.1424 40.5278 98.01 42.7637 98.12 45.5936C98.23 48.4235 97.5387 50.72 96.0461 52.4834C94.5535 54.2467 92.6081 55.175 90.2099 55.2682C87.7637 55.3633 85.8725 54.5962 84.5362 52.9669L84.3563 52.9739L84.0805 55.1463L80.843 55.2722ZM85.7375 50.5064C86.7886 51.5944 88.0575 52.1095 89.5444 52.0517C91.0313 51.9938 92.2445 51.3822 93.1839 50.2169C94.1473 49.0506 94.5936 47.5561 94.5227 45.7335C94.4518 43.9108 93.8909 42.4555 92.8398 41.3676C91.8127 40.2786 90.5557 39.7631 89.0689 39.8209C87.582 39.8787 86.3568 40.4908 85.3934 41.6571C84.454 42.8225 84.0197 44.3165 84.0906 46.1391C84.1615 47.9617 84.7104 49.4175 85.7375 50.5064ZM101.178 45.835L101.052 42.5974L112.923 42.1359L113.049 45.3734L101.178 45.835ZM129.03 53.3986L128.593 51.434L128.413 51.441C128.071 51.9107 127.655 52.3232 127.164 52.6785C126.043 53.4907 124.691 53.9275 123.108 53.9891C121.142 54.0655 119.551 53.611 118.336 52.6255C117.12 51.6399 116.481 50.3198 116.416 48.6651C116.344 46.8184 116.9 45.3438 118.082 44.241C119.288 43.1373 121.114 42.5379 123.56 42.4428L128.057 42.268L128.043 41.9082C127.997 40.7331 127.625 39.8229 126.928 39.1775C126.23 38.5321 125.294 38.2323 124.119 38.278C122.967 38.3227 122.09 38.621 121.487 39.1729C120.883 39.7007 120.534 40.2907 120.439 40.9429L116.842 41.0828C116.876 39.4963 117.533 38.1497 118.811 37.0433C120.088 35.9128 121.817 35.3051 124 35.2203C126.326 35.1298 128.16 35.671 129.503 36.8437C130.845 38.0164 131.558 39.658 131.64 41.7684L132.087 53.2797L129.03 53.3986ZM128.196 45.8652L128.168 45.1458L123.852 45.3136C122.533 45.3649 121.548 45.6674 120.897 46.2211C120.27 46.7739 119.973 47.482 120.007 48.3453C120.039 49.1847 120.341 49.8335 120.911 50.2917C121.481 50.7498 122.294 50.9584 123.349 50.9174C124.98 50.854 126.211 50.3858 127.041 49.5129C127.871 48.616 128.256 47.4001 128.196 45.8652ZM136.869 60.2992L135.89 35.1182L139.128 34.9923L139.571 37.1367L139.751 37.1297C140.118 36.6831 140.429 36.3348 140.683 36.0847C140.937 35.8106 141.488 35.477 142.338 35.0837C143.21 34.6655 144.174 34.4358 145.229 34.3948C147.627 34.3016 149.639 35.076 151.264 36.7181C152.889 38.3602 153.757 40.5962 153.867 43.426C153.977 46.2559 153.285 48.5525 151.793 50.3158C150.3 52.0791 148.355 53.0074 145.957 53.1007C143.486 53.1967 141.595 52.4296 140.283 50.7994L140.103 50.8064L140.467 60.1593L136.869 60.2992ZM141.484 48.3388C142.535 49.4268 143.804 49.9419 145.291 49.8841C146.778 49.8263 147.991 49.2147 148.931 48.0493C149.894 46.883 150.34 45.3885 150.269 43.5659C150.198 41.7433 149.637 40.288 148.586 39.2C147.559 38.1111 146.302 37.5955 144.815 37.6533C143.329 37.7112 142.103 38.3232 141.14 39.4895C140.201 40.6549 139.766 42.1489 139.837 43.9715C139.908 45.7942 140.457 47.2499 141.484 48.3388ZM158.263 59.4673L157.284 34.2864L160.522 34.1605L160.965 36.3049L161.145 36.2979C161.512 35.8513 161.823 35.5029 162.077 35.2529C162.331 34.9788 162.882 34.6451 163.732 34.2518C164.604 33.8336 165.568 33.604 166.623 33.563C169.021 33.4697 171.033 34.2441 172.658 35.8863C174.283 37.5284 175.151 39.7643 175.261 42.5942C175.371 45.4241 174.679 47.7207 173.187 49.484C171.694 51.2473 169.749 52.1756 167.351 52.2688C164.88 52.3649 162.989 51.5978 161.677 49.9675L161.497 49.9745L161.861 59.3275L158.263 59.4673ZM162.878 47.507C163.929 48.595 165.198 49.1101 166.685 49.0523C168.172 48.9944 169.385 48.3829 170.325 47.2175C171.288 46.0512 171.734 44.5567 171.663 42.7341C171.592 40.9114 171.031 39.4561 169.98 38.3682C168.953 37.2792 167.696 36.7637 166.209 36.8215C164.723 36.8793 163.497 37.4914 162.534 38.6577C161.595 39.8231 161.16 41.3171 161.231 43.1397C161.302 44.9623 161.851 46.4181 162.878 47.507Z" fill="white"/>
</svg>
